<svg id="SvgjsSvg1200" width="925" height="1697" xmlns="http://www.w3.org/2000/svg" version="1.1" xmlns:xlink="http://www.w3.org/1999/xlink" xmlns:svgjs="http://svgjs.com/svgjs"><defs id="SvgjsDefs1201"><marker id="SvgjsMarker1288" markerWidth="14" markerHeight="10" refX="10" refY="5" viewBox="0 0 14 10" orient="auto" markerUnits="userSpaceOnUse" stroke-dasharray="0,0"><path id="SvgjsPath1289" d="M0,0 L14,5 L0,10 L0,0" fill="#323232" stroke="#323232" stroke-width="1"></path></marker><marker id="SvgjsMarker1304" markerWidth="14" markerHeight="10" refX="10" refY="5" viewBox="0 0 14 10" orient="auto" markerUnits="userSpaceOnUse" stroke-dasharray="0,0"><path id="SvgjsPath1305" d="M0,0 L14,5 L0,10 L0,0" fill="#323232" stroke="#323232" stroke-width="1"></path></marker><marker id="SvgjsMarker1348" markerWidth="14" markerHeight="10" refX="10" refY="5" viewBox="0 0 14 10" orient="auto" markerUnits="userSpaceOnUse" stroke-dasharray="0,0"><path id="SvgjsPath1349" d="M0,0 L14,5 L0,10 L0,0" fill="#323232" stroke="#323232" stroke-width="1"></path></marker><marker id="SvgjsMarker1352" markerWidth="14" markerHeight="10" refX="10" refY="5" viewBox="0 0 14 10" orient="auto" markerUnits="userSpaceOnUse" stroke-dasharray="0,0"><path id="SvgjsPath1353" d="M0,0 L14,5 L0,10 L0,0" fill="#323232" stroke="#323232" stroke-width="1"></path></marker><marker id="SvgjsMarker1360" markerWidth="14" markerHeight="10" refX="10" refY="5" viewBox="0 0 14 10" orient="auto" markerUnits="userSpaceOnUse" stroke-dasharray="0,0"><path id="SvgjsPath1361" d="M0,0 L14,5 L0,10 L0,0" fill="#323232" stroke="#323232" stroke-width="1"></path></marker><marker id="SvgjsMarker1368" markerWidth="14" markerHeight="10" refX="10" refY="5" viewBox="0 0 14 10" orient="auto" markerUnits="userSpaceOnUse" stroke-dasharray="0,0"><path id="SvgjsPath1369" d="M0,0 L14,5 L0,10 L0,0" fill="#323232" stroke="#323232" stroke-width="1"></path></marker><marker id="SvgjsMarker1382" markerWidth="14" markerHeight="10" refX="10" refY="5" viewBox="0 0 14 10" orient="auto" markerUnits="userSpaceOnUse" stroke-dasharray="0,0"><path id="SvgjsPath1383" d="M0,0 L14,5 L0,10 L0,0" fill="#323232" stroke="#323232" stroke-width="1"></path></marker><marker id="SvgjsMarker1392" markerWidth="14" markerHeight="10" refX="10" refY="5" viewBox="0 0 14 10" orient="auto" markerUnits="userSpaceOnUse" stroke-dasharray="0,0"><path id="SvgjsPath1393" d="M0,0 L14,5 L0,10 L0,0" fill="#323232" stroke="#323232" stroke-width="1"></path></marker></defs><g id="SvgjsG1202" transform="translate(224,33.99999237060547)"><path id="SvgjsPath1203" d="M 0 0L 149 0L 149 1638.400001525879L 0 1638.400001525879Z" stroke="rgba(50,50,50,1)" stroke-width="2" fill-opacity="1" fill="#ffffff"></path><g id="SvgjsG1204"><text id="SvgjsText1205" font-family="微软雅黑" text-anchor="middle" font-size="13px" width="129px" fill="#323232" font-weight="400" align="middle" lineHeight="125%" anchor="middle" family="微软雅黑" size="13px" weight="400" font-style="" opacity="1" y="808.5750007629395" transform="rotate(0)"></text></g></g><g id="SvgjsG1206" transform="translate(135,24.999984741210938)"><path id="SvgjsPath1207" d="M 0 0L 120 0L 120 40L 0 40Z" stroke="none" fill="none"></path><g id="SvgjsG1208"><text id="SvgjsText1209" font-family="微软雅黑" text-anchor="middle" font-size="13px" width="120px" fill="#323232" font-weight="400" align="middle" lineHeight="125%" anchor="middle" family="微软雅黑" size="13px" weight="400" font-style="" opacity="1" y="9.375" transform="rotate(0)"><tspan id="SvgjsTspan1210" dy="16" x="60"><tspan id="SvgjsTspan1211" style="text-decoration:;">.bss</tspan></tspan></text></g></g><g id="SvgjsG1212" transform="translate(225,141.99999237060547)"><path id="SvgjsPath1213" d="M 0 0L 147 0L 147 134.20000076293945L 0 134.20000076293945Z" stroke="rgba(50,50,50,1)" stroke-width="2" fill-opacity="1" fill="#ffffff"></path><g id="SvgjsG1214"><text id="SvgjsText1215" font-family="微软雅黑" text-anchor="middle" font-size="13px" width="127px" fill="#323232" font-weight="400" align="middle" lineHeight="125%" anchor="middle" family="微软雅黑" size="13px" weight="400" font-style="" opacity="1" y="56.47500038146973" transform="rotate(0)"><tspan id="SvgjsTspan1216" dy="16" x="73.5"><tspan id="SvgjsTspan1217" style="text-decoration:;">area0(used)</tspan></tspan></text></g></g><g id="SvgjsG1218" transform="translate(225,275.99999237060547)"><path id="SvgjsPath1219" d="M 0 0L 147 0L 147 134.20000076293945L 0 134.20000076293945Z" stroke="rgba(50,50,50,1)" stroke-width="2" fill-opacity="1" fill="#ffffff"></path><g id="SvgjsG1220"><text id="SvgjsText1221" font-family="微软雅黑" text-anchor="middle" font-size="13px" width="127px" fill="#323232" font-weight="400" align="middle" lineHeight="125%" anchor="middle" family="微软雅黑" size="13px" weight="400" font-style="" opacity="1" y="56.47500038146973" transform="rotate(0)"><tspan id="SvgjsTspan1222" dy="16" x="73.5"><tspan id="SvgjsTspan1223" style="text-decoration:;">area1(used)</tspan></tspan></text></g></g><g id="SvgjsG1224" transform="translate(225,410.99999237060547)"><path id="SvgjsPath1225" d="M 0 0L 147 0L 147 134.20000076293945L 0 134.20000076293945Z" stroke="rgba(50,50,50,1)" stroke-width="2" fill-opacity="1" fill="#ffffff"></path><g id="SvgjsG1226"><text id="SvgjsText1227" font-family="微软雅黑" text-anchor="middle" font-size="13px" width="127px" fill="#323232" font-weight="400" align="middle" lineHeight="125%" anchor="middle" family="微软雅黑" size="13px" weight="400" font-style="" opacity="1" y="56.47500038146973" transform="rotate(0)"><tspan id="SvgjsTspan1228" dy="16" x="73.5"><tspan id="SvgjsTspan1229" style="text-decoration:;">area2(used)</tspan></tspan></text></g></g><g id="SvgjsG1230" transform="translate(225,545.9999923706055)"><path id="SvgjsPath1231" d="M 0 0L 147 0L 147 134.20000076293945L 0 134.20000076293945Z" stroke="rgba(50,50,50,1)" stroke-width="2" fill-opacity="1" fill="#ffffff"></path><g id="SvgjsG1232"><text id="SvgjsText1233" font-family="微软雅黑" text-anchor="middle" font-size="13px" width="127px" fill="#323232" font-weight="400" align="middle" lineHeight="125%" anchor="middle" family="微软雅黑" size="13px" weight="400" font-style="" opacity="1" y="56.47500038146973" transform="rotate(0)"></text></g></g><g id="SvgjsG1234" transform="translate(25,141.19998168945312)"><path id="SvgjsPath1235" d="M 138 0Q 129 0 129 9L 129 327.90001106262207Q 129 336.90001106262207 116 336.90001106262207Q 129 336.90001106262207 129 345.90001106262207L 129 664.8000221252441Q 129 673.8000221252441 138 673.8000221252441" stroke="rgba(50,50,50,1)" stroke-width="2" fill="none"></path><path id="SvgjsPath1236" d="M 0 0L 138 0L 138 673.8000221252441L 0 673.8000221252441Z" stroke="none" fill="none"></path><g id="SvgjsG1237"><text id="SvgjsText1238" font-family="微软雅黑" text-anchor="end" font-size="13px" width="111px" fill="#323232" font-weight="400" align="middle" lineHeight="125%" anchor="end" family="微软雅黑" size="13px" weight="400" font-style="" opacity="1" y="326.27501106262207" transform="rotate(0)"><tspan id="SvgjsTspan1239" dy="16" x="111"><tspan id="SvgjsTspan1240" style="text-decoration:;">areas</tspan></tspan></text></g></g><g id="SvgjsG1241" transform="translate(225,657.8000030517578)"><path id="SvgjsPath1242" d="M 0 0L 147 0L 147 22L 0 22Z" stroke="rgba(50,50,50,1)" stroke-width="2" fill-opacity="1" fill="#ffffff"></path><g id="SvgjsG1243"><text id="SvgjsText1244" font-family="微软雅黑" text-anchor="middle" font-size="13px" width="127px" fill="#323232" font-weight="400" align="middle" lineHeight="125%" anchor="middle" family="微软雅黑" size="13px" weight="400" font-style="" opacity="1" y="0.375" transform="rotate(0)"></text></g></g><g id="SvgjsG1245" transform="translate(225,635.8000030517578)"><path id="SvgjsPath1246" d="M 0 0L 147 0L 147 22L 0 22Z" stroke="rgba(50,50,50,1)" stroke-width="2" fill-opacity="1" fill="#ffffff"></path><g id="SvgjsG1247"><text id="SvgjsText1248" font-family="微软雅黑" text-anchor="middle" font-size="13px" width="127px" fill="#323232" font-weight="400" align="middle" lineHeight="125%" anchor="middle" family="微软雅黑" size="13px" weight="400" font-style="" opacity="1" y="0.375" transform="rotate(0)"></text></g></g><g id="SvgjsG1249" transform="translate(225,610.7000007629395)"><path id="SvgjsPath1250" d="M 0 0L 147 0L 147 22L 0 22Z" stroke="rgba(50,50,50,1)" stroke-width="2" fill-opacity="1" fill="#ffffff"></path><g id="SvgjsG1251"><text id="SvgjsText1252" font-family="微软雅黑" text-anchor="middle" font-size="13px" width="127px" fill="#323232" font-weight="400" align="middle" lineHeight="125%" anchor="middle" family="微软雅黑" size="13px" weight="400" font-style="" opacity="1" y="0.375" transform="rotate(0)"><tspan id="SvgjsTspan1253" dy="16" x="73.5"><tspan id="SvgjsTspan1254" style="text-decoration:;">meta1(used)</tspan></tspan></text></g></g><g id="SvgjsG1255" transform="translate(225,590.8000030517578)"><path id="SvgjsPath1256" d="M 0 0L 147 0L 147 22L 0 22Z" stroke="rgba(50,50,50,1)" stroke-width="2" fill-opacity="1" fill="#ffffff"></path><g id="SvgjsG1257"><text id="SvgjsText1258" font-family="微软雅黑" text-anchor="middle" font-size="13px" width="127px" fill="#323232" font-weight="400" align="middle" lineHeight="125%" anchor="middle" family="微软雅黑" size="13px" weight="400" font-style="" opacity="1" y="0.375" transform="rotate(0)"><tspan id="SvgjsTspan1259" dy="16" x="73.5"><tspan id="SvgjsTspan1260" style="text-decoration:;">meta0(used)</tspan></tspan></text></g></g><g id="SvgjsG1261" transform="translate(238.5,545.5999984741211)"><path id="SvgjsPath1262" d="M 0 0L 120 0L 120 40L 0 40Z" stroke="none" fill="none"></path><g id="SvgjsG1263"><text id="SvgjsText1264" font-family="微软雅黑" text-anchor="middle" font-size="13px" width="120px" fill="#323232" font-weight="400" align="middle" lineHeight="125%" anchor="middle" family="微软雅黑" size="13px" weight="400" font-style="" opacity="1" y="9.375" transform="rotate(0)"><tspan id="SvgjsTspan1265" dy="16" x="60"><tspan id="SvgjsTspan1266" style="text-decoration:;">area_head</tspan></tspan></text></g></g><g id="SvgjsG1267" transform="translate(225,680.8000030517578)"><path id="SvgjsPath1268" d="M 0 0L 147 0L 147 134.20000076293945L 0 134.20000076293945Z" stroke="rgba(50,50,50,1)" stroke-width="2" fill-opacity="1" fill="#ffffff"></path><g id="SvgjsG1269"><text id="SvgjsText1270" font-family="微软雅黑" text-anchor="middle" font-size="13px" width="127px" fill="#323232" font-weight="400" align="middle" lineHeight="125%" anchor="middle" family="微软雅黑" size="13px" weight="400" font-style="" opacity="1" y="56.47500038146973" transform="rotate(0)"><tspan id="SvgjsTspan1271" dy="16" x="73.5"><tspan id="SvgjsTspan1272" style="text-decoration:;">area4(used)</tspan></tspan></text></g></g><g id="SvgjsG1273" transform="translate(120,545.1999931335449)"><path id="SvgjsPath1274" d="M 100 0Q 91 0 91 9L 91 61Q 91 70 78 70Q 91 70 91 79L 91 131Q 91 140 100 140" stroke="rgba(50,50,50,1)" stroke-width="2" fill="none"></path><path id="SvgjsPath1275" d="M 0 0L 100 0L 100 140L 0 140Z" stroke="none" fill="none"></path><g id="SvgjsG1276"><text id="SvgjsText1277" font-family="微软雅黑" text-anchor="end" font-size="13px" width="73px" fill="#323232" font-weight="400" align="middle" lineHeight="125%" anchor="end" family="微软雅黑" size="13px" weight="400" font-style="" opacity="1" y="59.375" transform="rotate(0)"><tspan id="SvgjsTspan1278" dy="16" x="73"><tspan id="SvgjsTspan1279" style="text-decoration:;">area3</tspan></tspan></text></g></g><g id="SvgjsG1280" transform="translate(622,737.8000030517578)"><path id="SvgjsPath1281" d="M 0 0L 223 0L 223 35L 0 35Z" stroke="none" fill="none"></path><g id="SvgjsG1282"><text id="SvgjsText1283" font-family="微软雅黑" text-anchor="middle" font-size="13px" width="223px" fill="#323232" font-weight="400" align="middle" lineHeight="125%" anchor="middle" family="微软雅黑" size="13px" weight="400" font-style="" opacity="1" y="6.875" transform="rotate(0)"><tspan id="SvgjsTspan1284" dy="16" x="111.5"><tspan id="SvgjsTspan1285" style="text-decoration:;">malloc_context.avail_meta_areas</tspan></tspan></text></g></g><g id="SvgjsG1286"><path id="SvgjsPath1287" d="M621 755.3000030517578L495.680847955711 755.3000030517578L495.680847955711 680.9471559244599L372.961695911422 680.9471559244599" stroke="#323232" stroke-width="2" fill="none" marker-end="url(#SvgjsMarker1288)"></path></g><g id="SvgjsG1290" transform="translate(622,773.0000038146973)"><path id="SvgjsPath1291" d="M 0 0L 278 0L 278 42L 0 42Z" stroke="none" fill="none"></path><g id="SvgjsG1292"><text id="SvgjsText1293" font-family="微软雅黑" text-anchor="middle" font-size="13px" width="278px" fill="#323232" font-weight="400" align="middle" lineHeight="125%" anchor="middle" family="微软雅黑" size="13px" weight="400" font-style="" opacity="1" y="10.375" transform="rotate(0)"><tspan id="SvgjsTspan1294" dy="16" x="139"><tspan id="SvgjsTspan1295" style="text-decoration:;">malloc_context.avail_meta_area_count = 1</tspan></tspan></text></g></g><g id="SvgjsG1296" transform="translate(627,498.8000030517578)"><path id="SvgjsPath1297" d="M 0 0L 223 0L 223 35L 0 35Z" stroke="none" fill="none"></path><g id="SvgjsG1298"><text id="SvgjsText1299" font-family="微软雅黑" text-anchor="start" font-size="13px" width="223px" fill="#323232" font-weight="400" align="middle" lineHeight="125%" anchor="start" family="微软雅黑" size="13px" weight="400" font-style="" opacity="1" y="6.875" transform="rotate(0)"><tspan id="SvgjsTspan1300" dy="16" x="0"><tspan id="SvgjsTspan1301" style="text-decoration:;">malloc_context.avail_meta</tspan></tspan></text></g></g><g id="SvgjsG1302"><path id="SvgjsPath1303" d="M626 516.3000030517578L499 516.3000030517578L499 633.8000030517578L374.6 633.8000030517578" stroke="#323232" stroke-width="2" fill="none" marker-end="url(#SvgjsMarker1304)"></path></g><g id="SvgjsG1306" transform="translate(622,532.8000030517578)"><path id="SvgjsPath1307" d="M 0 0L 255 0L 255 34L 0 34Z" stroke="none" fill="none"></path><g id="SvgjsG1308"><text id="SvgjsText1309" font-family="微软雅黑" text-anchor="start" font-size="13px" width="255px" fill="#323232" font-weight="400" align="middle" lineHeight="125%" anchor="start" family="微软雅黑" size="13px" weight="400" font-style="" opacity="1" y="6.375" transform="rotate(0)"><tspan id="SvgjsTspan1310" dy="16" x="0"><tspan id="SvgjsTspan1311" style="text-decoration:;">malloc_context.avail_meta_count = 2</tspan></tspan></text></g></g><g id="SvgjsG1312" transform="translate(225,1041.1999816894531)"><path id="SvgjsPath1313" d="M 0 0L 147 0L 147 235L 0 235Z" stroke="rgba(50,50,50,1)" stroke-width="2" fill-opacity="1" fill="#ffffff"></path><g id="SvgjsG1314"><text id="SvgjsText1315" font-family="微软雅黑" text-anchor="middle" font-size="13px" width="127px" fill="#323232" font-weight="400" align="middle" lineHeight="125%" anchor="middle" family="微软雅黑" size="13px" weight="400" font-style="" opacity="1" y="106.875" transform="rotate(0)"></text></g></g><g id="SvgjsG1316" transform="translate(120,1023.1999816894531)"><path id="SvgjsPath1317" d="M 0 0L 120 0L 120 40L 0 40Z" stroke="none" fill="none"></path><g id="SvgjsG1318"><text id="SvgjsText1319" font-family="微软雅黑" text-anchor="middle" font-size="13px" width="120px" fill="#323232" font-weight="400" align="middle" lineHeight="125%" anchor="middle" family="微软雅黑" size="13px" weight="400" font-style="" opacity="1" y="9.375" transform="rotate(0)"><tspan id="SvgjsTspan1320" dy="16" x="60"><tspan id="SvgjsTspan1321" style="text-decoration:;">group:</tspan></tspan></text></g></g><g id="SvgjsG1322" transform="translate(225,1040.3999938964844)"><path id="SvgjsPath1323" d="M 0 0L 147 0L 147 35L 0 35Z" stroke="rgba(50,50,50,1)" stroke-width="2" fill-opacity="1" fill="#ffffff"></path><g id="SvgjsG1324"><text id="SvgjsText1325" font-family="微软雅黑" text-anchor="middle" font-size="13px" width="127px" fill="#323232" font-weight="400" align="middle" lineHeight="125%" anchor="middle" family="微软雅黑" size="13px" weight="400" font-style="" opacity="1" y="6.875" transform="rotate(0)"><tspan id="SvgjsTspan1326" dy="16" x="73.5"><tspan id="SvgjsTspan1327" style="text-decoration:;">group_head</tspan></tspan></text></g></g><g id="SvgjsG1328" transform="translate(225,1075.3999938964844)"><path id="SvgjsPath1329" d="M 0 0L 147 0L 147 56L 0 56Z" stroke="rgba(50,50,50,1)" stroke-width="2" fill-opacity="1" fill="#ffffff"></path><g id="SvgjsG1330"><text id="SvgjsText1331" font-family="微软雅黑" text-anchor="middle" font-size="13px" width="127px" fill="#323232" font-weight="400" align="middle" lineHeight="125%" anchor="middle" family="微软雅黑" size="13px" weight="400" font-style="" opacity="1" y="17.375" transform="rotate(0)"><tspan id="SvgjsTspan1332" dy="16" x="73.5"><tspan id="SvgjsTspan1333" style="text-decoration:;">chunk0</tspan></tspan></text></g></g><g id="SvgjsG1334" transform="translate(225,1130.3999938964844)"><path id="SvgjsPath1335" d="M 0 0L 147 0L 147 56L 0 56Z" stroke="rgba(50,50,50,1)" stroke-width="2" fill-opacity="1" fill="#ffffff"></path><g id="SvgjsG1336"><text id="SvgjsText1337" font-family="微软雅黑" text-anchor="middle" font-size="13px" width="127px" fill="#323232" font-weight="400" align="middle" lineHeight="125%" anchor="middle" family="微软雅黑" size="13px" weight="400" font-style="" opacity="1" y="17.375" transform="rotate(0)"><tspan id="SvgjsTspan1338" dy="16" x="73.5"><tspan id="SvgjsTspan1339" style="text-decoration:;">chunk1</tspan></tspan></text></g></g><g id="SvgjsG1340" transform="translate(225,1186.3999938964844)"><path id="SvgjsPath1341" d="M 0 0L 147 0L 147 56L 0 56Z" stroke="rgba(50,50,50,1)" stroke-width="2" fill-opacity="1" fill="#ffffff"></path><g id="SvgjsG1342"><text id="SvgjsText1343" font-family="微软雅黑" text-anchor="middle" font-size="13px" width="127px" fill="#323232" font-weight="400" align="middle" lineHeight="125%" anchor="middle" family="微软雅黑" size="13px" weight="400" font-style="" opacity="1" y="17.375" transform="rotate(0)"><tspan id="SvgjsTspan1344" dy="16" x="73.5"><tspan id="SvgjsTspan1345" style="text-decoration:;">chunk2</tspan></tspan></text></g></g><g id="SvgjsG1346"><path id="SvgjsPath1347" d="M373 621.7000007629395L450 621.7000007629395L450 1041.422648779319L375.6 1041.422648779319" stroke="#323232" stroke-width="2" fill="none" marker-end="url(#SvgjsMarker1348)"></path></g><g id="SvgjsG1350"><path id="SvgjsPath1351" d="M372 151.59999084472656L401 151.59999084472656L401 276.09999084472656L374.6 276.09999084472656" stroke="#323232" stroke-width="2" fill="none" marker-end="url(#SvgjsMarker1352)"></path><rect id="SvgjsRect1354" width="27" height="16" x="387.5" y="204.54999084472655" fill="#ffffff"></rect><text id="SvgjsText1355" font-family="微软雅黑" text-anchor="middle" font-size="13px" width="27px" fill="#323232" font-weight="400" align="top" lineHeight="16px" anchor="middle" family="微软雅黑" size="13px" weight="400" font-style="" opacity="1" y="201.92499084472655" transform="rotate(0)"><tspan id="SvgjsTspan1356" dy="16" x="401"><tspan id="SvgjsTspan1357" style="text-decoration:;">next</tspan></tspan></text></g><g id="SvgjsG1358"><path id="SvgjsPath1359" d="M372 291.59999084472656L401 291.59999084472656L401 411.0357724194878L374.6 411.0357724194878" stroke="#323232" stroke-width="2" fill="none" marker-end="url(#SvgjsMarker1360)"></path><rect id="SvgjsRect1362" width="27" height="16" x="387.5" y="342.01788163210716" fill="#ffffff"></rect><text id="SvgjsText1363" font-family="微软雅黑" text-anchor="middle" font-size="13px" width="27px" fill="#323232" font-weight="400" align="top" lineHeight="16px" anchor="middle" family="微软雅黑" size="13px" weight="400" font-style="" opacity="1" y="339.39288163210716" transform="rotate(0)"><tspan id="SvgjsTspan1364" dy="16" x="401"><tspan id="SvgjsTspan1365" style="text-decoration:;">next</tspan></tspan></text></g><g id="SvgjsG1366"><path id="SvgjsPath1367" d="M372 428.5999937057495L401 428.5999937057495L401 546.5999937057495L374.6 546.5999937057495" stroke="#323232" stroke-width="2" fill="none" marker-end="url(#SvgjsMarker1368)"></path><rect id="SvgjsRect1370" width="27" height="16" x="387.5" y="478.2999937057495" fill="#ffffff"></rect><text id="SvgjsText1371" font-family="微软雅黑" text-anchor="middle" font-size="13px" width="27px" fill="#323232" font-weight="400" align="top" lineHeight="16px" anchor="middle" family="微软雅黑" size="13px" weight="400" font-style="" opacity="1" y="475.6749937057495" transform="rotate(0)"><tspan id="SvgjsTspan1372" dy="16" x="401"><tspan id="SvgjsTspan1373" style="text-decoration:;">next</tspan></tspan></text></g><g id="SvgjsG1374" transform="translate(590,119.59999084472656)"><path id="SvgjsPath1375" d="M 0 0L 260 0L 260 60L 0 60Z" stroke="none" fill="none"></path><g id="SvgjsG1376"><text id="SvgjsText1377" font-family="微软雅黑" text-anchor="middle" font-size="13px" width="260px" fill="#323232" font-weight="400" align="middle" lineHeight="125%" anchor="middle" family="微软雅黑" size="13px" weight="400" font-style="" opacity="1" y="19.375" transform="rotate(0)"><tspan id="SvgjsTspan1378" dy="16" x="130"><tspan id="SvgjsTspan1379" style="text-decoration:;">malloc_context.meta_area_head</tspan></tspan></text></g></g><g id="SvgjsG1380"><path id="SvgjsPath1381" d="M589 149.59999084472656L479.65076844803525 149.59999084472656L479.65076844803525 142.3100915613549L372.90153689607047 142.3100915613549" stroke="#323232" stroke-width="2" fill="none" marker-end="url(#SvgjsMarker1382)"></path></g><g id="SvgjsG1384" transform="translate(585,167.59999084472656)"><path id="SvgjsPath1385" d="M 0 0L 260 0L 260 60L 0 60Z" stroke="none" fill="none"></path><g id="SvgjsG1386"><text id="SvgjsText1387" font-family="微软雅黑" text-anchor="middle" font-size="13px" width="260px" fill="#323232" font-weight="400" align="middle" lineHeight="125%" anchor="middle" family="微软雅黑" size="13px" weight="400" font-style="" opacity="1" y="19.375" transform="rotate(0)"><tspan id="SvgjsTspan1388" dy="16" x="130"><tspan id="SvgjsTspan1389" style="text-decoration:;">malloc_context.meta_area_tail</tspan></tspan></text></g></g><g id="SvgjsG1390"><path id="SvgjsPath1391" d="M584 197.59999084472656L478.0227883704817 197.59999084472656L478.0227883704817 547.1209382387503L374.6455767409634 547.1209382387503" stroke="#323232" stroke-width="2" fill="none" marker-end="url(#SvgjsMarker1392)"></path></g></svg>